<?xml version="1.0" standalone="no"?>
<!DOCTYPE svg PUBLIC "-//W3C//DTD SVG 20010904//EN"
 "http://www.w3.org/TR/2001/REC-SVG-20010904/DTD/svg10.dtd">
<svg version="1.0" xmlns="http://www.w3.org/2000/svg"
 width="734.000000pt" height="734.000000pt" viewBox="0 0 734.000000 734.000000"
 preserveAspectRatio="xMidYMid meet">

<g transform="translate(0.000000,734.000000) scale(0.100000,-0.100000)"
fill="#000000" stroke="none">
<path d="M3445 7014 c-803 -51 -1552 -306 -2152 -731 -661 -469 -1099 -1117
-1232 -1823 -65 -350 -60 -712 15 -1044 180 -798 770 -1509 1603 -1930 816
-413 1754 -550 2801 -410 179 24 497 84 650 123 l75 19 1053 -455 c580 -250
1056 -453 1058 -450 2 2 -131 438 -297 967 -189 604 -298 968 -293 975 5 7 42
56 82 109 400 529 593 1236 517 1890 -76 647 -366 1219 -863 1698 -599 577
-1411 940 -2332 1043 -138 15 -558 27 -685 19z m465 -304 c813 -49 1541 -319
2130 -788 118 -95 353 -329 444 -442 471 -590 650 -1287 510 -1990 -73 -369
-234 -693 -531 -1072 l-84 -107 230 -733 c126 -403 229 -733 228 -734 -1 -1
-360 153 -797 342 -437 189 -802 344 -810 344 -8 0 -112 -23 -230 -50 -537
-125 -1028 -174 -1494 -151 -453 23 -801 86 -1192 216 -862 286 -1509 830
-1809 1520 -132 303 -184 558 -185 900 0 637 243 1208 725 1704 263 270 523
460 870 636 601 306 1298 447 1995 405z"/>
</g>
</svg>
