<?xml version="1.0" encoding="iso-8859-1"?>
<!-- Generator: Adobe Illustrator 19.0.0, SVG Export Plug-In . SVG Version: 6.00 Build 0)  -->
<svg version="1.1" id="Layer_1" xmlns="http://www.w3.org/2000/svg" xmlns:xlink="http://www.w3.org/1999/xlink" x="0px" y="0px"
	 viewBox="0 0 455 455" style="enable-background:new 0 0 455 455;" xml:space="preserve">
<g>
	<path d="M227.5,409.663c-61.799,0-116.499-30.94-149.45-78.136C91.469,401.846,153.272,455,227.5,455
		s136.031-53.154,149.45-123.473C343.999,378.723,289.299,409.663,227.5,409.663z"/>
	<path d="M227.5,334.326c-61.799,0-116.499-30.94-149.45-78.135c13.419,70.318,75.222,123.473,149.45,123.473
		s136.031-53.154,149.45-123.473C343.999,303.386,289.299,334.326,227.5,334.326z"/>
	<path d="M212.5,83.313c-7.838,4.98-13.053,13.734-13.053,23.688c0,11.873,3.985,19.388,13.053,24.095V83.313z"/>
	<path d="M227.5,304.326c84.037,0,152.163-68.125,152.163-152.163S311.537,0,227.5,0S75.337,68.126,75.337,152.163
		S143.463,304.326,227.5,304.326z M209.999,162.365c-26.15-8.26-40.552-27.922-40.552-55.364c0-26.824,18.291-49.448,43.053-56.078
		V38.344h30v12.579c24.762,6.63,43.053,29.253,43.053,56.078h-30c0-9.954-5.216-18.708-13.053-23.688v57.858l2.501,0.79
		c26.15,8.26,40.552,27.922,40.552,55.364c0,26.824-18.291,49.447-43.053,56.078v12.579h-30v-12.579
		c-24.762-6.63-43.053-29.253-43.053-56.078h30c0,9.954,5.216,18.708,13.053,23.688v-57.858L209.999,162.365z"/>
	<path d="M255.553,197.325c0-11.873-3.985-19.388-13.053-24.095v47.783C250.338,216.033,255.553,207.279,255.553,197.325z"/>
</g>
<g>
</g>
<g>
</g>
<g>
</g>
<g>
</g>
<g>
</g>
<g>
</g>
<g>
</g>
<g>
</g>
<g>
</g>
<g>
</g>
<g>
</g>
<g>
</g>
<g>
</g>
<g>
</g>
<g>
</g>
</svg>
