<?xml version="1.0" standalone="no"?>
<!DOCTYPE svg PUBLIC "-//W3C//DTD SVG 20010904//EN"
 "http://www.w3.org/TR/2001/REC-SVG-20010904/DTD/svg10.dtd">
<svg version="1.0" xmlns="http://www.w3.org/2000/svg"
 width="394.000000pt" height="394.000000pt" viewBox="0 0 394.000000 394.000000"
 preserveAspectRatio="xMidYMid meet">

<g transform="translate(0.000000,394.000000) scale(0.100000,-0.100000)"
fill="#000000" stroke="none">
<path d="M1815 3929 c-208 -27 -398 -114 -538 -247 -118 -112 -205 -267 -254
-447 -25 -93 -27 -115 -27 -310 -1 -181 2 -226 22 -325 56 -278 116 -446 283
-790 65 -134 113 -247 119 -279 19 -104 -12 -193 -95 -269 -107 -98 -280 -167
-617 -248 -260 -62 -350 -89 -431 -132 -99 -51 -160 -110 -202 -195 -56 -114
-67 -188 -69 -452 l-1 -230 1208 -3 c664 -1 1207 0 1207 3 0 2 -24 34 -52 70
-161 199 -250 468 -235 710 13 212 87 384 323 747 271 417 389 681 454 1015
68 354 40 658 -86 913 -52 105 -66 124 -158 216 -90 90 -113 107 -206 153
-192 94 -415 129 -645 100z"/>
<path d="M3068 1465 c-549 -104 -788 -742 -443 -1183 136 -174 346 -274 575
-273 208 0 366 66 516 215 149 150 215 308 215 516 0 176 -49 322 -155 457
-164 209 -449 317 -708 268z m214 -477 l3 -163 163 -3 162 -2 0 -80 0 -80
-165 0 -165 0 0 -165 0 -165 -80 0 -80 0 -2 163 -3 162 -162 3 -163 2 0 80 0
80 163 2 162 3 3 163 2 162 80 0 80 0 2 -162z"/>
</g>
</svg>
