<svg width="19" height="19" viewBox="0 0 19 19" fill="none" xmlns="http://www.w3.org/2000/svg">
<path fill-rule="evenodd" clip-rule="evenodd" d="M5.50452 0.325751C5.19294 -0.074856 4.60076 -0.111724 4.24189 0.247143L3.20709 1.28194C2.84822 1.64081 2.88509 2.233 3.2857 2.54458L7.90084 6.13414L8.96175 5.07322L10.0227 6.13414L14.6378 2.54458C15.0384 2.233 15.0752 1.64081 14.7164 1.28194L13.6816 0.247143C13.3228 -0.111724 12.7305 -0.074856 12.4189 0.325751L8.96175 4.77075L5.50452 0.325751Z" fill="url(#paint0_linear_17_16)"/>
<path d="M17.7188 4.63379H0.84375C0.37776 4.63379 0 5.01155 0 5.47754V8.00879C0 8.47478 0.37776 8.85254 0.84375 8.85254H17.7188C18.1847 8.85254 18.5625 8.47478 18.5625 8.00879V5.47754C18.5625 5.01155 18.1847 4.63379 17.7188 4.63379Z" fill="url(#paint1_linear_17_16)"/>
<path d="M1.6875 8.85254H16.875V17.29C16.875 18.222 16.1195 18.9775 15.1875 18.9775H3.375C2.44302 18.9775 1.6875 18.222 1.6875 17.29V8.85254Z" fill="url(#paint2_linear_17_16)"/>
<g style="mix-blend-mode:soft-light">
<g style="mix-blend-mode:soft-light">
<path d="M10.9688 4.63379H7.59375V18.9775H10.9688V4.63379Z" fill="white"/>
</g>
</g>
<defs>
<linearGradient id="paint0_linear_17_16" x1="8.96173" y1="0" x2="8.96173" y2="6.13414" gradientUnits="userSpaceOnUse">
<stop stop-color="#FE9B13"/>
<stop offset="1" stop-color="#FE9B13"/>
</linearGradient>
<linearGradient id="paint1_linear_17_16" x1="9.28125" y1="4.63379" x2="9.28125" y2="8.85254" gradientUnits="userSpaceOnUse">
<stop stop-color="#FA9644"/>
<stop offset="1" stop-color="#FE6E2C"/>
</linearGradient>
<linearGradient id="paint2_linear_17_16" x1="15.6127" y1="9.69706" x2="8.1154" y2="22.0868" gradientUnits="userSpaceOnUse">
<stop stop-color="#F75D00"/>
<stop offset="1" stop-color="#F86710"/>
</linearGradient>
</defs>
</svg>
