<?xml version="1.0" standalone="no"?>
<!DOCTYPE svg PUBLIC "-//W3C//DTD SVG 20010904//EN"
 "http://www.w3.org/TR/2001/REC-SVG-20010904/DTD/svg10.dtd">
<svg version="1.0" xmlns="http://www.w3.org/2000/svg"
 width="1119.000000pt" height="1119.000000pt" viewBox="0 0 1119.000000 1119.000000"
 preserveAspectRatio="xMidYMid meet">

<g transform="translate(0.000000,1119.000000) scale(0.100000,-0.100000)"
fill="#000000" stroke="none">
<path d="M5632 9454 c-7 -13 -13 -14 -30 -5 -16 8 -21 7 -26 -5 -4 -9 -13 -13
-24 -10 -12 4 -27 -3 -42 -19 -15 -16 -30 -23 -42 -19 -11 3 -20 -1 -24 -11
-5 -11 -14 -15 -28 -11 -16 4 -27 -5 -51 -39 -22 -33 -35 -43 -50 -40 -21 5
-58 -48 -177 -254 -43 -73 -47 -86 -33 -94 14 -8 14 -12 -5 -44 -15 -26 -18
-39 -10 -48 8 -10 7 -23 -4 -49 -13 -32 -13 -37 0 -44 14 -8 13 -13 -4 -44
-17 -30 -18 -36 -4 -44 13 -9 13 -13 -2 -43 -19 -35 -41 -37 -40 -2 0 16 -13
31 -43 52 -33 23 -42 35 -38 49 5 15 -16 32 -107 88 -195 120 -205 125 -212
107 -5 -13 -13 -12 -57 10 -37 19 -54 23 -64 15 -7 -6 -20 -8 -29 -4 -9 3 -23
1 -31 -6 -11 -9 -21 -8 -46 4 -29 15 -33 15 -44 -1 -11 -15 -15 -15 -29 -4
-13 11 -17 11 -22 -4 -5 -11 -14 -15 -29 -11 -16 4 -27 -2 -44 -25 -18 -25
-25 -28 -37 -18 -12 10 -17 8 -28 -6 -8 -11 -20 -16 -29 -12 -11 4 -28 -13
-59 -58 -33 -47 -48 -61 -58 -55 -15 9 -32 -11 -90 -110 -24 -40 -28 -55 -19
-66 8 -10 2 -29 -25 -81 -30 -56 -34 -69 -21 -76 13 -7 12 -13 -4 -46 -18 -34
-18 -38 -3 -48 15 -9 15 -12 2 -28 -12 -15 -12 -18 2 -26 15 -8 15 -12 2 -37
-17 -33 -18 -52 -3 -52 7 0 9 -9 6 -21 -3 -12 -1 -29 5 -38 8 -13 6 -25 -6
-49 -15 -29 -15 -32 0 -40 13 -7 14 -14 6 -28 -7 -13 -6 -21 4 -29 13 -9 13
-15 -2 -44 -16 -31 -16 -34 0 -43 13 -7 14 -13 5 -30 -9 -17 -8 -23 5 -30 14
-8 13 -12 -4 -44 -18 -31 -18 -35 -4 -41 11 -4 14 -13 9 -31 -4 -15 -1 -28 6
-32 9 -6 7 -16 -5 -41 -16 -32 -16 -34 0 -46 14 -11 15 -15 3 -29 -11 -14 -11
-17 4 -25 16 -9 16 -12 1 -41 -13 -24 -14 -36 -5 -49 6 -10 8 -26 4 -35 -3 -9
0 -20 8 -24 11 -7 10 -15 -4 -45 -15 -31 -15 -36 -2 -41 11 -5 12 -11 5 -25
-14 -26 -42 -13 -34 16 4 15 0 24 -11 29 -15 5 -15 9 -4 22 11 14 11 18 -4 29
-10 7 -15 19 -11 29 3 9 1 23 -6 31 -7 8 -10 21 -7 29 3 7 -7 22 -23 34 -19
15 -27 27 -23 40 3 14 -5 26 -27 42 -23 17 -28 25 -20 35 8 10 3 18 -22 36
-18 12 -35 24 -37 26 -2 1 1 9 7 16 9 11 -8 26 -82 75 -95 62 -154 98 -239
145 -40 23 -48 24 -55 11 -8 -14 -13 -13 -45 5 -30 17 -37 18 -47 6 -9 -11
-17 -12 -31 -4 -15 8 -21 6 -25 -6 -4 -10 -13 -13 -26 -9 -10 3 -25 0 -33 -6
-8 -6 -19 -9 -25 -5 -6 4 -20 -1 -30 -10 -13 -11 -20 -13 -25 -5 -5 8 -13 6
-26 -6 -10 -9 -25 -14 -32 -11 -9 3 -27 -11 -47 -39 -23 -33 -37 -43 -50 -39
-15 5 -32 -16 -88 -107 -90 -145 -100 -167 -83 -178 11 -6 7 -19 -15 -60 -23
-42 -25 -53 -14 -60 12 -8 12 -14 -2 -44 -15 -30 -15 -36 -3 -46 11 -9 12 -17
5 -31 -8 -13 -6 -20 6 -27 13 -7 14 -14 6 -28 -8 -14 -6 -21 5 -30 15 -10 15
-14 0 -42 -13 -26 -13 -33 -1 -43 10 -8 11 -16 3 -30 -8 -15 -6 -21 6 -26 11
-4 15 -13 11 -29 -3 -12 -2 -26 4 -29 6 -3 7 -17 4 -29 -4 -16 0 -25 11 -29
13 -5 14 -11 5 -27 -9 -16 -8 -22 4 -26 11 -4 14 -14 10 -29 -3 -13 -1 -26 6
-30 6 -4 8 -15 5 -24 -3 -10 1 -24 10 -31 12 -10 13 -16 3 -27 -10 -12 -9 -17
5 -24 12 -7 15 -17 11 -35 -4 -15 -2 -24 6 -24 8 0 10 -9 6 -24 -4 -18 -1 -28
11 -35 14 -7 15 -12 5 -24 -10 -11 -9 -17 3 -27 9 -7 13 -20 10 -28 -3 -8 0
-21 6 -28 6 -8 8 -21 5 -30 -4 -10 1 -22 11 -29 15 -11 15 -15 4 -29 -11 -13
-11 -17 4 -22 12 -5 15 -14 10 -31 -4 -16 -1 -25 10 -29 11 -4 12 -11 5 -24
-7 -13 -5 -21 6 -31 8 -7 12 -19 9 -27 -3 -8 0 -21 6 -28 6 -8 9 -20 6 -28 -3
-8 5 -24 19 -36 16 -16 22 -30 18 -45 -4 -15 0 -24 11 -29 15 -5 15 -9 4 -22
-11 -14 -11 -18 3 -28 11 -8 15 -20 11 -34 -3 -15 0 -24 11 -28 13 -5 14 -9 5
-20 -9 -11 -8 -18 4 -32 11 -12 13 -22 6 -33 -6 -12 -4 -19 6 -23 11 -4 14
-13 10 -29 -5 -17 -2 -26 10 -31 15 -5 15 -9 4 -22 -11 -14 -10 -18 5 -30 15
-10 16 -16 7 -27 -9 -11 -8 -17 3 -26 8 -7 12 -21 9 -32 -3 -12 -1 -24 5 -28
8 -5 9 -17 2 -41 -6 -23 -6 -38 1 -46 6 -7 8 -22 5 -32 -4 -13 -1 -22 9 -26
12 -4 14 -10 5 -25 -8 -16 -7 -22 6 -29 13 -7 14 -13 5 -30 -8 -16 -7 -21 4
-26 11 -4 14 -13 9 -31 -4 -16 -2 -25 6 -25 8 0 10 -9 6 -25 -5 -18 -2 -27 9
-31 11 -5 12 -10 4 -26 -9 -17 -8 -23 5 -30 12 -7 14 -14 6 -27 -7 -14 -6 -22
5 -31 13 -10 13 -16 0 -46 -12 -30 -12 -35 3 -43 14 -8 14 -11 2 -26 -12 -15
-12 -19 5 -31 15 -11 16 -17 7 -26 -9 -9 -8 -16 3 -28 14 -15 14 -20 1 -46
-13 -25 -13 -30 -1 -44 12 -13 12 -19 2 -29 -9 -10 -8 -15 7 -26 16 -12 17
-17 6 -30 -11 -13 -10 -18 4 -28 16 -12 16 -14 0 -46 -13 -26 -14 -35 -4 -41
7 -4 9 -16 6 -27 -4 -12 0 -25 9 -33 12 -10 13 -16 4 -26 -9 -11 -8 -18 1 -29
9 -11 9 -22 1 -46 -7 -21 -8 -36 -1 -44 5 -6 7 -20 4 -32 -4 -13 0 -22 11 -27
14 -5 15 -9 4 -22 -10 -12 -9 -18 3 -30 14 -14 14 -19 1 -45 -11 -23 -12 -33
-3 -44 6 -8 9 -23 5 -35 -4 -13 -1 -22 10 -26 12 -5 13 -9 4 -20 -9 -11 -8
-18 4 -32 11 -12 13 -22 6 -34 -7 -12 -5 -19 8 -26 14 -8 15 -13 5 -25 -10
-11 -9 -17 3 -27 12 -10 13 -16 1 -45 -12 -28 -12 -35 2 -48 12 -13 13 -19 3
-30 -9 -12 -8 -16 5 -21 12 -4 14 -13 10 -31 -5 -18 -2 -27 9 -31 11 -4 12
-11 5 -24 -7 -13 -5 -21 5 -30 10 -9 12 -17 5 -30 -7 -13 -6 -20 5 -24 11 -4
14 -13 9 -31 -4 -16 -2 -25 6 -25 8 0 10 -9 6 -24 -4 -18 -1 -28 11 -35 14 -7
15 -12 5 -24 -10 -11 -9 -17 3 -27 9 -7 13 -21 10 -30 -3 -9 1 -23 10 -30 12
-10 13 -16 3 -27 -10 -12 -9 -17 5 -25 11 -6 16 -16 12 -27 -3 -11 4 -26 20
-41 15 -14 23 -30 20 -40 -3 -10 1 -23 10 -30 11 -9 12 -16 5 -25 -7 -9 -6
-16 5 -25 9 -7 13 -21 10 -30 -4 -12 5 -26 24 -43 23 -19 27 -27 18 -36 -9 -9
-8 -15 6 -23 13 -7 17 -17 13 -32 -4 -16 2 -26 24 -41 22 -15 26 -23 19 -37
-7 -13 -4 -20 12 -28 16 -9 18 -14 8 -26 -9 -11 -7 -18 12 -34 13 -10 27 -19
32 -20 4 0 5 -11 1 -25 -3 -14 -2 -25 2 -25 5 0 20 -9 34 -19 20 -16 22 -22
12 -34 -11 -12 -7 -19 23 -37 27 -17 33 -25 26 -38 -7 -13 -1 -22 25 -40 24
-16 33 -29 30 -40 -4 -13 10 -28 53 -57 47 -31 59 -44 55 -60 -4 -16 8 -28 61
-60 47 -29 65 -45 61 -57 -5 -23 5 -31 174 -135 249 -154 268 -164 278 -148 6
12 24 5 95 -34 74 -42 88 -47 96 -33 8 13 15 12 56 -13 39 -22 52 -26 66 -17
14 9 27 6 64 -14 38 -22 48 -24 61 -13 13 10 22 9 50 -6 30 -16 37 -17 44 -5
7 12 15 12 46 -4 33 -15 38 -16 46 -2 8 14 13 13 43 -4 28 -16 35 -17 45 -5
10 12 17 11 46 -3 29 -13 37 -14 43 -3 6 8 17 11 31 6 14 -4 25 -3 30 5 5 9
16 8 43 -4 33 -13 37 -13 46 2 8 14 11 14 26 2 15 -12 18 -12 26 3 9 15 12 15
45 0 29 -14 37 -15 43 -4 5 8 17 11 28 7 12 -4 25 0 33 9 10 12 16 13 27 3 12
-10 17 -9 27 4 8 11 17 13 28 7 11 -6 20 -4 28 6 8 9 21 13 36 9 15 -4 24 -2
24 5 0 12 48 5 64 -10 5 -4 21 6 36 23 19 20 30 26 35 18 5 -8 12 -7 25 5 10
9 24 13 35 9 11 -5 21 -1 27 10 7 12 14 14 28 6 13 -7 19 -6 24 5 4 11 13 14
29 10 17 -5 26 -2 30 10 5 12 11 14 26 5 17 -8 23 -5 38 20 14 24 23 30 40 25
15 -3 25 1 32 12 7 13 12 15 23 5 12 -9 19 -6 37 19 16 22 28 28 42 24 12 -4
21 -1 25 9 4 11 14 14 29 10 16 -4 27 0 34 13 25 45 29 47 44 35 12 -10 19 -6
38 22 18 27 27 32 40 25 14 -7 22 -2 39 26 18 29 25 33 36 24 8 -7 16 -10 17
-8 46 63 70 86 85 83 11 -4 23 5 36 26 13 23 24 30 37 27 15 -4 28 7 53 45 19
28 37 45 41 39 11 -20 22 -12 55 39 25 40 35 48 48 41 13 -7 23 1 50 40 25 38
38 49 51 44 14 -4 26 7 51 45 25 39 35 48 45 40 10 -8 17 -5 30 12 8 13 29 42
45 65 20 29 34 40 47 37 13 -3 27 8 48 41 21 31 35 44 48 41 12 -3 27 10 49
42 49 73 59 83 73 72 9 -8 21 3 45 41 24 37 38 49 51 46 13 -4 27 8 49 42 52
79 58 85 73 73 10 -9 21 0 48 42 27 40 39 52 50 45 11 -6 26 8 59 57 32 47 48
63 60 59 13 -4 29 12 60 60 34 53 45 63 57 54 7 -7 15 -10 17 -8 1 2 22 32 45
65 29 43 47 60 59 58 12 -3 28 11 51 46 23 34 39 49 50 45 11 -3 29 14 59 58
28 42 49 63 62 63 12 -1 35 23 67 69 35 50 55 69 69 68 15 -1 38 28 100 130
108 175 109 177 93 188 -11 7 -9 19 14 61 23 45 26 54 13 62 -12 9 -12 15 5
47 18 36 18 39 2 48 -15 8 -15 11 -4 25 12 14 11 18 -3 29 -16 12 -16 14 0 46
16 31 16 34 0 43 -12 7 -14 14 -6 28 8 14 6 21 -6 28 -13 7 -14 13 -6 28 9 17
6 23 -18 39 -22 15 -28 25 -24 41 4 14 0 23 -11 27 -12 5 -14 11 -5 26 8 17 5
23 -25 41 -30 18 -34 25 -24 37 9 10 9 17 2 21 -66 43 -83 59 -81 77 2 15 -27
38 -134 105 -188 117 -239 144 -249 128 -6 -10 -16 -8 -44 5 -28 13 -40 15
-51 6 -10 -8 -21 -7 -46 5 -28 14 -33 15 -40 2 -7 -13 -13 -13 -45 0 -27 12
-38 13 -43 4 -4 -7 -16 -9 -27 -6 -12 4 -25 0 -33 -9 -10 -12 -16 -13 -27 -3
-12 10 -18 9 -28 -5 -7 -10 -19 -15 -29 -11 -11 4 -23 -3 -37 -20 -14 -18 -27
-25 -39 -21 -9 3 -22 -1 -29 -9 -6 -8 -20 -12 -30 -9 -11 3 -24 -5 -35 -22
-11 -16 -24 -25 -36 -23 -14 2 -30 -11 -53 -43 -26 -36 -37 -45 -49 -38 -13 7
-25 -5 -58 -56 -32 -49 -47 -64 -60 -60 -13 4 -26 -8 -49 -44 -21 -33 -37 -48
-47 -44 -18 6 -17 11 1 46 11 21 12 33 3 46 -8 13 -6 25 7 51 15 29 15 34 2
42 -13 7 -12 14 10 54 21 38 24 50 15 65 -10 15 -8 25 8 51 17 28 17 33 4 43
-13 9 -12 17 11 58 22 39 25 50 15 63 -11 12 -9 21 6 50 17 30 17 36 4 44 -13
8 -13 14 4 44 15 29 17 38 6 50 -10 13 -7 24 14 63 23 40 25 48 11 55 -13 8
-13 14 5 48 17 34 18 40 5 47 -13 8 -11 17 12 61 23 42 25 54 15 61 -11 7 -11
14 3 42 14 26 15 37 6 51 -9 14 -8 24 6 44 13 20 14 30 5 44 -9 15 -6 28 13
65 18 37 21 51 12 65 -8 14 -7 24 6 44 14 21 15 30 6 45 -10 15 -8 27 13 64
22 39 24 48 12 58 -12 10 -11 17 7 47 18 31 19 36 5 44 -14 8 -13 15 10 59 19
38 22 54 14 64 -8 9 -6 23 7 50 15 31 15 38 3 45 -12 7 -11 14 6 45 16 30 17
37 5 44 -11 7 -9 18 13 62 23 47 24 54 11 62 -14 8 -14 13 6 45 18 32 19 38 6
46 -13 9 -12 16 9 59 19 36 22 52 14 62 -8 9 -6 22 7 49 12 27 14 39 6 47 -9
9 -7 20 5 45 12 26 13 37 4 46 -8 8 -4 24 15 62 22 44 24 52 10 60 -13 8 -12
13 4 43 15 27 17 37 7 52 -9 15 -6 27 14 64 22 39 24 48 12 58 -12 10 -11 17
7 47 18 31 19 36 5 44 -14 8 -14 13 4 49 18 34 18 40 6 45 -13 5 -11 14 10 56
20 39 23 53 13 64 -6 7 -8 21 -5 30 4 9 1 23 -5 30 -8 10 -7 22 5 46 15 28 15
33 1 41 -10 5 -13 16 -9 33 4 15 2 24 -6 24 -8 0 -10 9 -6 25 5 18 2 27 -9 31
-10 4 -13 13 -9 26 4 13 -2 25 -21 39 -17 14 -24 27 -20 39 4 13 -3 25 -24 39
-19 14 -27 27 -25 39 4 12 -8 27 -40 49 -32 23 -43 37 -40 50 4 15 -21 35
-132 101 -116 70 -139 80 -147 67 -8 -14 -12 -14 -43 4 -27 16 -39 18 -53 10
-13 -9 -24 -8 -46 4 -25 13 -31 13 -40 1 -9 -13 -15 -12 -44 2 -31 15 -35 15
-45 1 -8 -10 -17 -12 -28 -6 -11 6 -20 4 -28 -6 -9 -10 -17 -12 -30 -5 -13 7
-20 6 -24 -6 -4 -10 -13 -13 -27 -9 -14 5 -25 1 -34 -11 -10 -14 -16 -16 -27
-7 -11 9 -18 5 -37 -23 -19 -27 -27 -32 -38 -23 -15 13 -23 6 -64 -59 -17 -26
-24 -30 -35 -21 -8 7 -16 10 -17 8 -10 -14 -92 -146 -126 -203 -35 -59 -39
-70 -26 -80 12 -9 10 -18 -16 -63 -20 -35 -35 -50 -45 -46 -18 7 -18 21 0 55
13 24 13 29 -1 36 -12 7 -13 13 -4 29 8 16 7 24 -3 33 -12 10 -12 16 5 45 18
31 19 34 3 43 -15 8 -15 11 1 41 12 25 14 36 5 46 -7 8 -9 24 -5 36 4 13 2 24
-5 29 -10 6 -9 15 4 41 15 29 15 35 2 44 -10 8 -11 16 -4 29 8 14 7 21 -5 28
-14 7 -14 12 -2 41 13 32 13 35 -15 59 -22 20 -26 28 -17 37 9 10 8 15 -6 26
-12 9 -17 20 -13 33 5 14 -1 24 -19 36 -16 11 -25 25 -23 36 2 12 -9 28 -29
43 -22 16 -29 27 -23 37 10 16 -34 48 -223 162 -92 55 -121 68 -127 58 -7 -11
-18 -10 -60 10 -41 19 -53 21 -59 11 -6 -8 -17 -11 -31 -6 -14 5 -25 2 -31 -6
-6 -11 -14 -10 -43 4 -32 15 -36 15 -44 1z m161 -455 c81 -41 126 -77 120 -97
-3 -13 4 -25 22 -36 21 -14 25 -23 21 -42 -4 -16 -2 -26 8 -30 11 -4 11 -11
-4 -42 -15 -31 -16 -38 -4 -47 13 -9 13 -15 -2 -44 -14 -27 -14 -35 -3 -42 11
-6 10 -15 -5 -45 -16 -34 -16 -38 -2 -46 12 -7 14 -14 6 -27 -7 -14 -6 -22 5
-31 12 -10 11 -16 -5 -45 -17 -31 -18 -35 -4 -43 15 -8 15 -12 0 -40 -13 -25
-14 -36 -5 -50 9 -15 9 -26 -4 -50 -14 -29 -14 -33 0 -40 12 -7 13 -13 4 -30
-9 -17 -8 -23 5 -30 14 -8 13 -13 -6 -44 -19 -33 -20 -37 -4 -46 15 -8 15 -11
-1 -41 -13 -25 -14 -36 -5 -47 7 -7 9 -21 6 -30 -4 -9 -1 -23 5 -30 8 -10 7
-22 -5 -46 -15 -28 -15 -34 -3 -43 13 -9 12 -15 -3 -45 -16 -30 -16 -36 -3
-45 14 -10 13 -15 -2 -45 -13 -24 -14 -34 -5 -40 8 -5 9 -16 5 -30 -5 -14 -2
-25 6 -31 11 -6 10 -15 -5 -45 -15 -33 -16 -38 -2 -46 14 -8 14 -12 -1 -44
-15 -29 -15 -37 -3 -44 11 -7 11 -14 -3 -41 -11 -23 -13 -37 -6 -46 6 -7 8
-22 4 -34 -5 -13 -2 -25 6 -30 11 -6 10 -14 -4 -43 -15 -33 -15 -36 0 -45 15
-8 15 -12 -4 -43 -18 -30 -19 -36 -5 -44 12 -8 13 -14 3 -31 -9 -18 -8 -24 5
-31 15 -8 15 -12 0 -40 -13 -25 -14 -36 -5 -50 9 -14 8 -25 -4 -47 -13 -26
-13 -31 0 -41 14 -9 14 -14 -2 -38 -15 -22 -16 -32 -7 -47 6 -10 9 -25 6 -34
-4 -8 -1 -22 6 -29 9 -11 8 -22 -5 -47 -15 -29 -16 -33 -1 -41 14 -8 13 -12
-4 -43 -16 -28 -17 -35 -5 -45 11 -9 11 -17 -1 -47 -12 -27 -13 -38 -4 -43 8
-5 9 -16 5 -30 -5 -14 -2 -25 6 -31 10 -6 9 -15 -7 -44 -18 -34 -18 -37 -2
-46 16 -9 16 -12 -3 -43 -19 -32 -19 -35 -3 -44 13 -7 14 -13 6 -27 -7 -13 -7
-24 1 -35 7 -12 6 -26 -6 -48 -14 -29 -14 -33 0 -40 13 -8 13 -12 -1 -40 -13
-25 -14 -36 -5 -50 9 -14 8 -25 -5 -50 -15 -29 -15 -32 1 -41 15 -8 15 -11 3
-26 -12 -15 -12 -18 2 -26 15 -8 15 -13 2 -45 -14 -33 -14 -36 8 -54 13 -11
27 -19 31 -20 4 0 3 -8 -2 -19 -9 -16 -3 -24 42 -53 92 -61 119 -73 131 -56 9
12 15 13 29 4 14 -9 20 -7 28 7 9 15 13 16 26 6 12 -11 17 -10 25 5 7 12 17
16 32 12 20 -5 29 5 69 76 39 69 44 84 32 91 -13 7 -11 16 14 62 24 43 27 56
16 65 -10 9 -7 21 16 64 25 45 27 55 14 60 -14 5 -13 11 6 47 17 34 18 43 7
50 -10 7 -7 19 15 61 23 44 25 55 14 62 -12 8 -10 18 13 60 21 38 25 55 18 66
-8 12 -3 30 16 68 23 45 24 53 11 58 -13 5 -11 15 14 60 24 45 27 55 15 65
-12 10 -9 20 15 63 26 44 28 53 15 61 -13 9 -11 18 13 63 22 42 25 54 15 61
-11 7 -8 19 13 60 20 41 24 56 15 67 -9 10 -6 24 14 59 20 37 23 50 14 64 -9
15 -6 28 17 66 24 42 26 49 12 57 -14 7 -12 15 14 63 25 47 27 55 14 62 -14 8
-12 15 11 57 21 37 25 53 17 65 -8 12 -6 26 9 54 16 33 17 38 3 43 -13 5 -11
15 15 62 26 49 28 57 15 65 -14 7 -13 14 11 54 21 37 25 50 16 64 -9 14 -6 28
16 69 23 42 25 52 13 60 -13 7 -12 14 4 44 14 26 16 38 7 48 -9 11 -6 25 13
62 19 37 22 52 13 65 -8 14 -5 27 15 64 21 38 23 47 12 57 -11 9 -6 23 28 80
35 59 44 67 59 59 14 -7 20 -6 25 6 4 12 13 15 30 10 16 -4 25 -1 29 10 5 11
10 12 26 4 14 -7 23 -7 33 1 12 10 28 4 80 -26 53 -31 63 -42 59 -58 -4 -16 3
-26 26 -39 26 -16 29 -21 18 -34 -10 -12 -9 -18 6 -28 13 -10 15 -18 8 -31 -7
-13 -6 -21 5 -29 13 -10 13 -15 -5 -45 -19 -31 -19 -35 -5 -45 15 -11 14 -17
-11 -61 -23 -42 -25 -50 -13 -58 13 -9 13 -15 -5 -49 -17 -35 -18 -41 -5 -49
13 -7 11 -16 -14 -62 -25 -45 -27 -55 -14 -60 14 -5 13 -10 -4 -44 -17 -34
-18 -39 -4 -48 13 -8 12 -14 -6 -46 -19 -31 -20 -38 -7 -45 12 -7 10 -16 -12
-61 -22 -45 -24 -55 -12 -62 13 -8 12 -14 -4 -44 -15 -29 -17 -38 -6 -50 10
-13 7 -24 -14 -63 -23 -40 -25 -48 -11 -55 13 -8 12 -14 -5 -49 -18 -33 -18
-40 -6 -45 12 -5 10 -15 -12 -60 -21 -44 -24 -57 -13 -63 10 -7 10 -15 -4 -42
-14 -25 -15 -37 -6 -51 9 -14 7 -25 -9 -50 -17 -28 -17 -33 -3 -43 14 -10 13
-17 -11 -59 -22 -39 -24 -51 -15 -63 10 -12 9 -21 -6 -49 -16 -30 -17 -37 -5
-44 12 -7 10 -17 -10 -60 -19 -40 -21 -53 -11 -59 10 -7 8 -17 -8 -49 -17 -34
-18 -41 -5 -46 12 -5 12 -11 -6 -46 -18 -35 -18 -41 -6 -46 13 -5 11 -14 -10
-56 -20 -39 -23 -53 -13 -64 9 -11 8 -22 -7 -50 -17 -30 -17 -36 -4 -44 13 -8
11 -17 -13 -62 -23 -44 -25 -53 -12 -61 13 -7 12 -13 -5 -48 -18 -34 -18 -40
-6 -45 13 -5 13 -11 -4 -44 -14 -27 -16 -40 -8 -48 9 -9 5 -25 -12 -62 -19
-40 -21 -53 -11 -59 10 -7 9 -17 -7 -48 -18 -34 -18 -40 -5 -49 12 -8 10 -16
-13 -58 -25 -44 -26 -50 -11 -61 15 -10 14 -14 -3 -43 -16 -25 -17 -36 -9 -50
9 -14 7 -26 -10 -57 -24 -45 -26 -62 -9 -67 8 -3 5 -16 -11 -43 -20 -34 -20
-39 -7 -47 14 -8 14 -13 -4 -49 -18 -34 -18 -40 -6 -45 13 -5 11 -14 -10 -56
-19 -37 -22 -53 -14 -63 8 -9 6 -23 -7 -50 -15 -31 -15 -37 -3 -45 13 -8 11
-17 -13 -62 -25 -46 -26 -53 -12 -61 14 -8 14 -12 -5 -45 -19 -32 -20 -37 -6
-47 13 -10 13 -15 -4 -43 -16 -26 -18 -36 -8 -51 9 -15 6 -27 -15 -65 -22 -40
-23 -47 -10 -54 12 -7 13 -13 4 -31 -10 -17 -9 -22 3 -27 11 -4 14 -14 10 -29
-4 -15 0 -24 11 -29 12 -4 14 -10 7 -23 -11 -20 -1 -29 97 -88 56 -34 65 -36
73 -21 7 13 13 14 30 5 17 -9 23 -8 30 5 8 14 13 15 24 5 12 -10 17 -8 28 6 8
11 20 16 30 12 11 -5 25 7 49 42 26 39 36 47 49 40 13 -7 24 4 58 56 32 49 47
64 60 60 13 -4 26 8 50 45 25 38 37 49 51 45 14 -5 28 9 61 59 33 48 47 62 58
56 10 -6 25 7 56 54 29 44 48 63 62 62 14 -1 33 17 59 54 28 38 45 54 59 53
15 -2 28 12 50 48 24 42 32 49 51 44 13 -3 23 -2 23 2 1 5 10 19 20 32 17 19
23 21 35 11 12 -10 16 -9 21 5 5 11 14 15 30 11 14 -4 26 -1 31 8 7 12 13 12
44 -3 32 -16 37 -16 45 -3 15 22 209 -97 209 -128 0 -12 14 -33 30 -45 24 -20
27 -26 16 -39 -11 -13 -10 -17 4 -22 12 -5 15 -14 10 -31 -4 -16 -1 -25 10
-29 14 -6 13 -11 -6 -42 -18 -32 -19 -37 -5 -47 13 -10 8 -24 -42 -106 -46
-75 -62 -94 -79 -92 -16 2 -31 -13 -63 -63 -32 -47 -47 -63 -60 -59 -12 4 -28
-12 -61 -60 -30 -45 -49 -63 -60 -60 -10 4 -29 -15 -60 -59 -34 -48 -49 -62
-59 -56 -11 7 -23 -5 -50 -45 -27 -41 -39 -51 -51 -45 -11 7 -25 -6 -59 -56
-32 -47 -48 -63 -60 -59 -13 4 -29 -12 -60 -60 -34 -53 -45 -63 -57 -54 -7 7
-15 10 -17 8 -1 -2 -17 -26 -35 -52 -23 -34 -37 -46 -49 -43 -13 4 -29 -12
-61 -59 -34 -50 -47 -62 -57 -54 -10 8 -21 -2 -46 -40 -23 -36 -39 -50 -52
-48 -14 1 -32 -14 -59 -53 -25 -35 -45 -55 -58 -54 -12 0 -31 -17 -51 -47 -25
-36 -38 -47 -53 -43 -16 4 -28 -9 -59 -56 -29 -46 -44 -60 -57 -57 -13 4 -27
-8 -50 -44 -32 -50 -43 -57 -54 -38 -4 6 -23 -12 -43 -41 -25 -36 -40 -49 -52
-45 -13 4 -26 -7 -46 -40 -23 -36 -34 -45 -50 -41 -15 4 -25 -3 -38 -25 -12
-21 -24 -29 -36 -26 -18 5 -34 -10 -66 -58 -11 -17 -22 -24 -35 -20 -12 4 -25
-3 -40 -25 -15 -19 -29 -28 -39 -25 -10 3 -24 -6 -38 -24 -14 -19 -28 -28 -40
-25 -12 4 -26 -5 -41 -25 -18 -23 -27 -28 -37 -20 -10 8 -16 5 -25 -10 -9 -14
-17 -17 -29 -11 -13 7 -22 2 -39 -20 -13 -18 -27 -27 -36 -24 -8 4 -22 1 -30
-6 -8 -7 -21 -10 -29 -7 -8 3 -20 -1 -27 -9 -6 -8 -19 -12 -29 -9 -10 3 -26
-5 -39 -19 -14 -15 -30 -22 -42 -19 -11 3 -21 -1 -25 -11 -4 -12 -11 -13 -24
-6 -13 7 -21 5 -30 -5 -6 -7 -18 -11 -26 -8 -8 3 -21 0 -29 -7 -8 -6 -23 -9
-35 -5 -13 4 -22 1 -26 -8 -5 -13 -9 -13 -32 -1 -33 17 -52 18 -52 3 0 -7 -10
-9 -24 -5 -14 3 -28 1 -31 -5 -4 -6 -18 -8 -31 -5 -17 5 -26 2 -30 -9 -5 -13
-10 -13 -37 1 -23 13 -35 14 -48 5 -10 -6 -25 -8 -34 -5 -8 4 -22 1 -30 -6
-11 -9 -21 -8 -45 7 -29 17 -32 17 -41 1 -9 -16 -12 -16 -43 3 -29 17 -35 17
-45 5 -11 -13 -17 -13 -47 2 -28 13 -37 14 -43 3 -7 -10 -16 -9 -48 7 -34 18
-40 18 -49 6 -8 -13 -17 -10 -62 13 -43 23 -54 25 -61 14 -7 -11 -23 -6 -80
27 -59 34 -72 38 -79 26 -7 -13 -23 -7 -93 33 -202 118 -260 158 -255 176 3
13 -12 29 -57 59 -89 59 -99 69 -87 83 8 10 1 19 -25 35 -27 16 -35 28 -32 41
4 14 -7 28 -39 51 -31 22 -43 37 -39 49 4 11 -4 24 -20 38 -19 14 -25 26 -20
40 4 14 0 21 -15 26 -16 5 -18 10 -10 25 8 16 5 23 -20 42 -18 13 -28 28 -25
37 3 7 -2 22 -10 31 -11 12 -13 20 -6 25 18 10 13 20 -19 38 -24 14 -29 23
-24 41 4 16 0 25 -11 30 -15 5 -15 9 -4 22 11 14 11 18 -3 28 -11 8 -15 20
-11 34 3 15 0 24 -11 28 -12 5 -13 10 -5 25 7 15 6 21 -5 25 -11 4 -14 14 -10
29 3 13 1 26 -6 30 -6 4 -8 15 -5 24 3 10 -1 24 -10 31 -12 10 -13 16 -3 27
10 12 9 17 -5 24 -12 7 -15 17 -11 35 4 15 2 24 -6 24 -8 0 -10 9 -6 24 4 18
1 28 -11 35 -15 8 -15 11 -3 26 12 15 12 18 -3 27 -13 7 -15 13 -7 29 9 15 7
21 -5 26 -11 4 -15 13 -11 29 3 12 1 26 -5 29 -6 4 -8 17 -5 30 4 16 1 25 -10
29 -14 5 -14 9 -3 22 11 14 11 18 -4 29 -16 11 -16 15 -1 44 12 25 13 35 4 46
-6 8 -9 23 -6 33 4 13 1 22 -9 26 -12 4 -14 10 -6 25 8 14 7 22 -4 31 -11 9
-12 17 -5 31 8 13 6 20 -6 27 -15 8 -15 12 1 42 15 30 16 35 2 45 -11 8 -13
15 -5 29 8 14 7 21 -6 28 -12 7 -14 14 -6 27 7 14 6 22 -4 30 -12 10 -12 16 1
42 11 23 12 33 3 44 -6 8 -9 23 -5 35 4 13 1 22 -9 26 -12 5 -13 10 -5 26 9
17 8 23 -4 30 -14 7 -14 12 -1 36 17 33 18 52 3 52 -7 0 -9 9 -6 21 3 12 1 29
-5 39 -8 13 -7 25 4 48 14 26 14 31 2 36 -10 4 -12 14 -8 30 3 13 1 27 -5 31
-6 3 -8 17 -5 31 4 15 2 24 -6 24 -8 0 -10 9 -6 25 4 17 2 27 -8 31 -12 5 -12
10 1 41 11 27 12 38 3 43 -7 4 -9 16 -6 27 4 12 0 25 -9 33 -12 10 -13 16 -3
27 10 12 9 18 -7 29 -15 11 -16 17 -7 26 9 9 8 16 -5 30 -13 14 -13 20 -3 33
10 12 9 16 -5 21 -12 5 -15 14 -10 31 4 16 1 25 -10 29 -11 4 -12 11 -5 24 7
13 6 21 -4 29 -8 7 -12 20 -9 30 3 10 0 22 -6 25 -6 4 -8 18 -5 30 4 16 0 25
-11 30 -15 5 -15 9 -4 22 11 14 10 18 -5 29 -14 11 -15 18 -7 33 8 16 7 21 -4
26 -11 4 -14 13 -10 29 5 17 2 26 -10 31 -15 5 -15 9 -4 22 11 14 10 18 -5 30
-15 10 -16 16 -7 27 9 11 8 17 -4 27 -9 7 -13 21 -10 31 3 9 1 20 -5 24 -7 4
-9 17 -6 30 4 15 1 25 -10 29 -12 4 -13 10 -4 26 9 16 8 22 -5 27 -12 4 -15
13 -10 30 4 16 1 25 -10 29 -11 4 -12 11 -5 24 7 13 5 21 -5 30 -7 6 -11 18
-8 26 3 8 0 21 -7 29 -6 8 -9 23 -6 33 4 13 1 22 -9 26 -13 4 -14 10 -5 26 9
16 8 22 -4 26 -11 4 -14 14 -10 30 4 17 1 26 -10 30 -13 5 -14 9 -5 20 9 11 8
18 -4 32 -11 12 -13 22 -6 33 6 12 4 19 -6 23 -11 4 -14 13 -10 29 5 17 2 26
-10 31 -15 5 -15 9 -4 22 11 14 11 18 -4 29 -10 7 -15 19 -11 29 3 9 1 22 -5
30 -6 7 -9 20 -6 28 3 8 -1 21 -10 28 -12 10 -13 16 -4 27 9 11 8 17 -7 27
-15 12 -16 16 -5 30 11 13 11 17 -4 22 -11 5 -15 14 -11 30 3 12 1 26 -5 29
-6 4 -8 17 -5 30 4 15 1 25 -10 29 -12 4 -13 10 -4 26 9 16 8 22 -4 26 -11 4
-14 14 -10 30 4 17 1 26 -10 30 -13 5 -14 9 -4 21 9 11 9 19 -1 34 -9 16 -9
26 2 49 12 24 12 30 1 42 -11 11 -7 23 24 76 20 34 41 62 46 62 6 0 46 -21 89
-47 65 -40 77 -51 73 -68 -4 -16 2 -26 24 -39 25 -14 28 -20 20 -37 -9 -15 -7
-21 5 -26 11 -4 15 -13 11 -28 -4 -15 -1 -25 10 -29 10 -4 13 -13 9 -27 -5
-15 0 -26 20 -43 15 -13 23 -28 20 -38 -3 -8 1 -21 10 -28 12 -10 13 -16 3
-27 -10 -12 -9 -17 5 -24 12 -7 15 -17 11 -33 -4 -16 0 -25 11 -30 15 -5 15
-9 4 -22 -11 -13 -10 -17 4 -25 11 -7 15 -18 12 -32 -4 -16 1 -27 19 -41 19
-13 24 -25 20 -41 -4 -15 0 -24 11 -28 12 -5 14 -11 6 -26 -8 -14 -7 -20 4
-25 11 -4 14 -13 10 -29 -5 -17 -2 -26 10 -30 12 -5 14 -11 6 -26 -8 -15 -7
-20 5 -25 10 -4 13 -13 9 -26 -5 -15 0 -26 20 -41 17 -14 24 -27 20 -39 -3 -9
1 -23 10 -30 10 -9 12 -17 5 -30 -7 -13 -6 -20 5 -24 11 -4 14 -13 10 -29 -5
-17 -2 -26 10 -30 12 -5 14 -11 6 -26 -8 -15 -7 -20 5 -25 10 -4 13 -13 9 -26
-5 -15 0 -26 20 -41 17 -14 24 -27 20 -39 -3 -9 1 -23 9 -29 8 -7 12 -19 9
-27 -3 -8 0 -21 7 -29 6 -8 9 -23 6 -33 -4 -13 -1 -22 9 -26 12 -4 14 -10 5
-25 -8 -16 -7 -22 6 -29 11 -6 15 -16 10 -27 -4 -11 2 -23 19 -37 17 -13 24
-26 20 -38 -3 -9 1 -23 10 -30 9 -7 13 -21 10 -31 -3 -9 -1 -20 5 -24 7 -4 9
-17 6 -30 -4 -15 -1 -25 10 -29 10 -4 13 -13 9 -25 -3 -11 -1 -22 5 -26 7 -4
9 -17 6 -30 -4 -15 -1 -25 10 -29 9 -4 13 -13 10 -24 -4 -12 3 -27 19 -42 16
-15 23 -30 19 -42 -3 -11 1 -20 10 -24 11 -4 14 -14 10 -29 -5 -20 5 -29 72
-70 65 -39 81 -45 97 -36 14 9 25 9 47 -3 28 -14 31 -13 55 16 20 24 28 28 39
19 11 -9 22 1 53 51 63 99 66 107 53 123 -9 11 -8 22 4 46 15 29 15 33 -1 44
-15 11 -15 15 -3 30 12 15 12 18 -3 26 -15 9 -15 12 0 45 14 29 15 37 4 44 -8
4 -11 15 -8 24 4 9 2 25 -4 35 -9 13 -8 25 5 49 15 29 15 32 0 40 -13 7 -14
14 -6 28 7 13 6 21 -4 29 -13 9 -13 15 2 43 12 25 13 36 4 47 -6 8 -9 23 -6
33 4 13 1 22 -9 26 -13 5 -12 10 5 40 17 32 18 36 4 44 -13 7 -14 13 -5 30 9
17 8 23 -5 30 -14 8 -14 12 0 46 13 32 13 38 1 42 -12 5 -12 10 -3 27 9 17 8
23 -4 31 -14 8 -14 13 -1 44 11 26 12 37 3 42 -8 5 -9 16 -5 30 5 14 2 25 -6
31 -11 6 -10 14 4 43 15 33 15 36 0 45 -15 8 -15 11 -3 26 12 15 12 19 -3 30
-16 11 -16 15 -1 44 12 24 13 35 5 45 -6 7 -9 21 -5 30 3 9 1 22 -5 30 -6 7
-9 21 -5 30 3 9 1 23 -6 30 -9 11 -8 21 4 45 15 27 15 31 0 39 -13 7 -14 13
-5 31 10 17 9 22 -3 27 -14 5 -14 10 -1 41 11 27 12 39 4 49 -6 8 -8 21 -5 30
4 9 1 23 -5 30 -8 10 -7 21 4 43 13 26 13 31 -1 45 -13 12 -13 19 -4 28 9 9 8
15 -3 28 -12 14 -12 19 1 44 13 26 13 31 -1 46 -12 13 -12 19 -2 29 9 10 9 15
-4 24 -15 11 -15 15 -2 42 12 22 13 33 4 46 -6 10 -8 25 -5 34 4 8 1 22 -6 29
-9 11 -8 21 4 44 14 26 14 32 1 42 -11 9 -12 17 -5 31 8 13 6 20 -6 27 -14 8
-13 12 5 45 17 30 17 36 5 41 -10 4 -13 13 -8 31 4 17 2 27 -9 31 -14 5 -13
10 4 41 19 33 19 36 2 48 -14 10 -15 16 -5 28 10 11 9 17 -3 27 -13 11 -13 15
1 42 12 22 13 33 4 43 -6 8 -9 23 -5 35 4 13 1 22 -9 26 -13 5 -13 11 6 47 13
27 17 42 9 45 -17 6 -13 24 15 65 19 28 30 36 44 32 12 -4 22 0 28 11 7 13 13
14 28 6 14 -8 21 -6 30 6 10 13 21 9 93 -34 72 -42 81 -51 76 -71 -3 -13 -2
-23 2 -23 5 -1 19 -10 32 -20 18 -16 21 -23 12 -34 -9 -10 -8 -16 4 -26 9 -7
14 -19 11 -27 -3 -8 -1 -22 6 -32 8 -14 7 -25 -4 -49 -14 -26 -14 -31 -2 -36
10 -4 12 -14 8 -30 -3 -13 -1 -27 5 -31 6 -3 8 -17 5 -31 -4 -16 -2 -24 6 -24
8 0 10 -8 7 -21 -3 -12 -1 -29 5 -39 8 -13 7 -25 -4 -48 -14 -26 -14 -31 -2
-36 10 -4 12 -14 8 -31 -4 -16 -2 -25 6 -25 8 0 9 -10 5 -30 -4 -19 -3 -30 4
-30 15 0 14 -20 -3 -52 -12 -23 -12 -27 0 -32 10 -4 12 -14 8 -30 -3 -13 -1
-27 5 -31 6 -3 8 -17 5 -29 -4 -16 0 -25 10 -29 14 -6 14 -10 -4 -41 -17 -32
-18 -36 -4 -44 13 -7 14 -13 5 -30 -8 -16 -7 -21 5 -26 10 -4 13 -13 9 -26 -4
-12 -1 -27 5 -35 9 -11 8 -21 -3 -44 -13 -26 -13 -31 1 -45 12 -12 13 -18 3
-30 -11 -13 -10 -17 3 -22 11 -4 15 -13 10 -26 -3 -10 0 -25 6 -33 9 -11 8
-21 -4 -46 -15 -29 -15 -33 1 -44 15 -11 15 -15 4 -29 -11 -13 -11 -17 3 -22
11 -4 14 -13 10 -31 -4 -15 -2 -28 5 -33 10 -5 9 -15 -2 -42 -13 -31 -13 -36
2 -45 14 -9 14 -12 2 -27 -12 -14 -11 -18 5 -30 15 -12 16 -16 5 -30 -11 -13
-11 -17 3 -22 11 -4 14 -13 10 -31 -4 -16 -2 -28 6 -33 10 -6 9 -15 -4 -40
-15 -31 -15 -34 1 -45 14 -10 15 -16 5 -28 -10 -11 -9 -17 3 -27 9 -8 13 -21
9 -33 -3 -11 -1 -23 6 -27 9 -5 8 -16 -4 -43 -13 -33 -13 -37 2 -46 14 -8 14
-12 3 -25 -12 -14 -11 -19 5 -30 15 -11 16 -17 6 -29 -11 -13 -10 -17 3 -25
15 -8 15 -12 1 -45 -13 -33 -13 -37 2 -46 14 -8 14 -11 2 -26 -12 -15 -12 -19
5 -31 15 -11 16 -17 7 -26 -9 -9 -8 -16 4 -29 14 -16 14 -20 -1 -50 -16 -29
-16 -33 -1 -41 12 -7 14 -14 6 -28 -8 -15 -6 -21 7 -28 15 -9 15 -12 4 -26
-12 -14 -11 -19 5 -30 15 -12 16 -16 5 -30 -11 -13 -11 -17 4 -22 11 -5 15
-14 11 -28 -5 -22 38 -56 148 -117 45 -25 51 -26 62 -11 9 13 15 14 27 4 11
-10 17 -9 27 3 7 9 21 13 30 10 14 -4 29 13 67 72 74 115 75 119 61 142 -9 15
-8 24 7 47 16 24 16 29 2 38 -13 10 -13 15 3 46 16 30 16 36 3 45 -14 10 -13
15 1 44 13 25 15 36 6 46 -9 11 -8 22 4 47 15 29 15 33 1 41 -12 6 -13 13 -4
28 7 15 7 24 -1 34 -9 11 -8 22 4 47 15 28 15 33 1 40 -13 8 -13 12 1 40 13
25 14 36 5 50 -9 14 -8 25 5 50 15 28 15 32 0 40 -14 8 -13 13 5 45 18 32 19
37 5 45 -14 8 -14 12 1 44 15 31 15 36 3 44 -13 8 -13 13 -1 31 11 19 11 23
-3 31 -14 8 -14 12 1 44 15 30 15 36 3 44 -12 8 -12 14 4 46 15 33 16 38 2 46
-14 8 -13 13 4 43 16 28 17 35 5 45 -12 10 -11 17 3 46 14 30 14 36 2 44 -12
8 -12 14 3 44 11 23 13 37 6 42 -6 3 -8 18 -4 32 4 16 1 28 -7 33 -10 6 -9 15
4 43 14 29 15 36 3 46 -11 9 -10 17 6 45 18 30 19 34 4 42 -15 9 -15 13 1 47
16 32 16 38 4 46 -12 8 -12 14 2 44 14 29 15 36 3 46 -12 10 -11 17 5 45 17
31 18 35 4 43 -13 7 -14 13 -5 30 9 17 8 23 -5 30 -14 8 -13 12 5 45 18 32 19
37 5 45 -15 8 -15 12 0 40 13 25 14 36 5 50 -9 14 -8 25 5 50 15 28 15 32 0
40 -14 8 -14 12 5 42 18 30 18 35 4 45 -13 9 -13 16 -4 33 10 18 9 23 -3 28
-13 5 -13 10 0 41 11 26 12 38 4 48 -8 10 -7 22 6 46 14 29 15 34 1 44 -13 9
-13 15 3 45 16 30 16 36 3 45 -13 10 -12 16 5 45 19 30 19 35 5 45 -14 10 -14
15 2 45 15 30 16 35 2 45 -11 8 -12 16 -5 28 6 12 6 22 -2 32 -13 16 -2 40 63
143 27 43 45 62 57 60 9 -2 24 3 33 11 14 11 20 11 32 1 12 -10 16 -9 21 4 8
20 6 20 57 -5z m647 -689 c0 -19 -24 -60 -35 -60 -22 0 -24 12 -9 41 14 27 44
40 44 19z"/>
</g>
</svg>
