<svg width="25" height="25" viewBox="0 0 25 25" fill="none" xmlns="http://www.w3.org/2000/svg">
<path fill-rule="evenodd" clip-rule="evenodd" d="M17.7819 0C21.9911 0 24.82 2.94831 24.82 7.33534V17.4723C24.82 21.8593 21.9911 24.8076 17.7819 24.8076H7.02571C2.82272 24.8076 0 21.8593 0 17.4723V7.33534C0 2.94831 2.82272 0 7.02571 0H17.7819ZM17.7819 1.86523H7.02571C3.89088 1.86523 1.86523 4.01274 1.86523 7.33534V17.4723C1.86523 20.7961 3.89088 22.9424 7.02571 22.9424H17.7819C20.9242 22.9424 22.9548 20.7961 22.9548 17.4723V7.33534C22.9548 4.01274 20.9242 1.86523 17.7819 1.86523ZM18.5765 12.5585C18.5843 12.5649 18.5921 12.5713 18.6083 12.5864L18.6323 12.6093C18.6372 12.614 18.6425 12.6192 18.6484 12.625L18.7178 12.6939C18.9421 12.9185 19.5619 13.5515 21.4092 15.4484C21.7685 15.8164 21.7623 16.4071 21.393 16.7665C21.0249 17.1283 20.433 17.1171 20.0736 16.7491C20.0736 16.7491 17.5257 14.134 17.3442 13.9574C17.1514 13.7995 16.8418 13.7075 16.5372 13.7373C16.2275 13.7684 15.949 13.9164 15.7513 14.1564C12.8614 17.6618 12.8266 17.6953 12.7793 17.7414C11.7124 18.7884 9.99019 18.771 8.94193 17.7016C8.94193 17.7016 7.78549 16.5277 7.76559 16.5041C7.47834 16.238 6.96603 16.2554 6.65888 16.5799L4.75635 18.5857C4.57231 18.7797 4.3261 18.8767 4.07989 18.8767C3.8486 18.8767 3.61855 18.7921 3.43825 18.6205C3.06396 18.2674 3.04904 17.6754 3.40343 17.3036L5.30348 15.2979C6.30946 14.2297 8.00683 14.1775 9.07996 15.1847L10.2712 16.3934C10.6032 16.7292 11.1429 16.7354 11.4762 16.4071C11.6018 16.2591 14.3101 12.9701 14.3101 12.9701C14.8249 12.3459 15.5511 11.9604 16.3581 11.8808C17.1664 11.8099 17.951 12.0449 18.5765 12.5585ZM8.15505 5.75599C9.87355 5.75723 11.27 7.15491 11.27 8.86968C11.27 10.5869 9.87231 11.9846 8.15505 11.9846C6.43779 11.9846 5.04135 10.5869 5.04135 8.86968C5.04135 7.15242 6.43779 5.75599 8.15505 5.75599ZM8.15381 7.62122C7.46616 7.62122 6.90659 8.18079 6.90659 8.86968C6.90659 9.55858 7.46616 10.1194 8.15505 10.1194C8.84394 10.1194 9.40476 9.55858 9.40476 8.86968C9.40476 8.18203 8.84394 7.62246 8.15381 7.62122Z" fill="white"/>
</svg>
