<svg width="62" height="15" viewBox="0 0 62 15" fill="none" xmlns="http://www.w3.org/2000/svg">
<path d="M11.3462 5.05664C11.3462 5.53906 11.3029 5.97819 11.2163 6.37402C11.1359 6.76367 11.006 7.1224 10.8267 7.4502C10.6473 7.77799 10.4154 8.08105 10.1309 8.35938C9.84635 8.6377 9.50309 8.90365 9.10107 9.15723L11.3091 13.0908L7.13428 13.9072L5.70557 9.95508L4.55518 9.99219L4.38818 13.8516H0.398926C0.42985 12.4414 0.457682 11.0374 0.482422 9.63965C0.513346 8.24186 0.547363 6.83789 0.584473 5.42773C0.596842 4.71647 0.609212 4.01139 0.621582 3.3125C0.633952 2.61361 0.658691 1.90853 0.695801 1.19727C1.12874 1.03646 1.5555 0.903483 1.97607 0.79834C2.39665 0.693197 2.81722 0.612793 3.23779 0.557129C3.66455 0.49528 4.0944 0.455078 4.52734 0.436523C4.96647 0.411784 5.41488 0.399414 5.87256 0.399414C6.57764 0.399414 7.25798 0.498372 7.91357 0.696289C8.57536 0.888021 9.15983 1.17871 9.66699 1.56836C10.1742 1.95801 10.5793 2.44352 10.8823 3.0249C11.1916 3.60628 11.3462 4.28353 11.3462 5.05664ZM7.18994 5.35352C7.18994 5.09375 7.15283 4.85563 7.07861 4.63916C7.01058 4.42269 6.90544 4.23714 6.76318 4.08252C6.62712 3.92171 6.45394 3.79801 6.24365 3.71143C6.03955 3.61865 5.79834 3.57227 5.52002 3.57227C5.39632 3.57227 5.27572 3.58154 5.1582 3.6001C5.04069 3.61247 4.92627 3.63411 4.81494 3.66504L4.6665 7.11621H4.88916C5.15511 7.11621 5.42415 7.08219 5.69629 7.01416C5.97461 6.94613 6.22201 6.84098 6.43848 6.69873C6.66113 6.55648 6.84049 6.37402 6.97656 6.15137C7.11882 5.92871 7.18994 5.66276 7.18994 5.35352ZM23.3325 7.4502C23.3325 8.01302 23.2676 8.55729 23.1377 9.08301C23.0078 9.60254 22.8192 10.0911 22.5718 10.5488C22.3306 11.0065 22.0337 11.4271 21.6812 11.8105C21.3348 12.1878 20.9421 12.5125 20.5029 12.7847C20.07 13.0568 19.5968 13.2702 19.0835 13.4248C18.5701 13.5732 18.0259 13.6475 17.4507 13.6475C16.894 13.6475 16.3621 13.5763 15.855 13.4341C15.354 13.2918 14.884 13.0939 14.4448 12.8403C14.0057 12.5806 13.6068 12.2713 13.248 11.9126C12.8955 11.5477 12.5924 11.1457 12.3389 10.7065C12.0915 10.2612 11.8966 9.78499 11.7544 9.27783C11.6183 8.77067 11.5503 8.24186 11.5503 7.69141C11.5503 7.15332 11.6152 6.6276 11.7451 6.11426C11.875 5.59473 12.0605 5.10612 12.3018 4.64844C12.5492 4.19076 12.846 3.77018 13.1924 3.38672C13.5387 3.00326 13.9253 2.67236 14.3521 2.39404C14.785 2.11572 15.252 1.89925 15.7529 1.74463C16.2539 1.59001 16.7827 1.5127 17.3394 1.5127C18.2362 1.5127 19.0526 1.65186 19.7886 1.93018C20.5308 2.2085 21.1616 2.60742 21.6812 3.12695C22.2069 3.6403 22.612 4.26497 22.8965 5.00098C23.1872 5.73079 23.3325 6.5472 23.3325 7.4502ZM19.2134 7.69141C19.2134 7.42546 19.1732 7.16878 19.0928 6.92139C19.0186 6.66781 18.9072 6.44515 18.7588 6.25342C18.6104 6.0555 18.4248 5.89779 18.2021 5.78027C17.9857 5.65658 17.7352 5.59473 17.4507 5.59473C17.16 5.59473 16.9002 5.6473 16.6714 5.75244C16.4425 5.85758 16.2446 6.00293 16.0776 6.18848C15.9168 6.36784 15.7931 6.58122 15.7065 6.82861C15.62 7.06982 15.5767 7.3265 15.5767 7.59863C15.5767 7.8584 15.6138 8.11816 15.688 8.37793C15.7622 8.6377 15.8735 8.87272 16.022 9.08301C16.1704 9.29329 16.3529 9.46338 16.5693 9.59326C16.792 9.72314 17.0487 9.78809 17.3394 9.78809C17.63 9.78809 17.8898 9.73242 18.1187 9.62109C18.3537 9.50358 18.5516 9.34896 18.7124 9.15723C18.8732 8.95931 18.9969 8.73356 19.0835 8.47998C19.1701 8.2264 19.2134 7.96354 19.2134 7.69141ZM35.4487 7.4502C35.4487 8.01302 35.3838 8.55729 35.2539 9.08301C35.124 9.60254 34.9354 10.0911 34.688 10.5488C34.4468 11.0065 34.1499 11.4271 33.7974 11.8105C33.451 12.1878 33.0583 12.5125 32.6191 12.7847C32.1862 13.0568 31.7131 13.2702 31.1997 13.4248C30.6864 13.5732 30.1421 13.6475 29.5669 13.6475C29.0103 13.6475 28.4784 13.5763 27.9712 13.4341C27.4702 13.2918 27.0002 13.0939 26.561 12.8403C26.1219 12.5806 25.723 12.2713 25.3643 11.9126C25.0117 11.5477 24.7087 11.1457 24.4551 10.7065C24.2077 10.2612 24.0129 9.78499 23.8706 9.27783C23.7345 8.77067 23.6665 8.24186 23.6665 7.69141C23.6665 7.15332 23.7314 6.6276 23.8613 6.11426C23.9912 5.59473 24.1768 5.10612 24.418 4.64844C24.6654 4.19076 24.9622 3.77018 25.3086 3.38672C25.6549 3.00326 26.0415 2.67236 26.4683 2.39404C26.9012 2.11572 27.3682 1.89925 27.8691 1.74463C28.3701 1.59001 28.8989 1.5127 29.4556 1.5127C30.3524 1.5127 31.1688 1.65186 31.9048 1.93018C32.647 2.2085 33.2778 2.60742 33.7974 3.12695C34.3231 3.6403 34.7282 4.26497 35.0127 5.00098C35.3034 5.73079 35.4487 6.5472 35.4487 7.4502ZM31.3296 7.69141C31.3296 7.42546 31.2894 7.16878 31.209 6.92139C31.1348 6.66781 31.0234 6.44515 30.875 6.25342C30.7266 6.0555 30.541 5.89779 30.3184 5.78027C30.1019 5.65658 29.8514 5.59473 29.5669 5.59473C29.2762 5.59473 29.0164 5.6473 28.7876 5.75244C28.5588 5.85758 28.3608 6.00293 28.1938 6.18848C28.033 6.36784 27.9093 6.58122 27.8228 6.82861C27.7362 7.06982 27.6929 7.3265 27.6929 7.59863C27.6929 7.8584 27.73 8.11816 27.8042 8.37793C27.8784 8.6377 27.9897 8.87272 28.1382 9.08301C28.2866 9.29329 28.4691 9.46338 28.6855 9.59326C28.9082 9.72314 29.1649 9.78809 29.4556 9.78809C29.7463 9.78809 30.006 9.73242 30.2349 9.62109C30.4699 9.50358 30.6678 9.34896 30.8286 9.15723C30.9894 8.95931 31.1131 8.73356 31.1997 8.47998C31.2863 8.2264 31.3296 7.96354 31.3296 7.69141ZM50.4409 0.473633L49.5874 14.0928L45.3569 14.2783L45.394 7.09766L43.4829 12.8867H41.8501L40.3843 7.70996L40.3657 13.7217L36.0796 13.8516L36.2651 1.03027L41.0337 0.844727L42.9263 6.98633L45.4497 0.473633H50.4409ZM61.2397 9.89941C61.2397 10.4004 61.1717 10.8488 61.0356 11.2446C60.8996 11.6405 60.7109 11.993 60.4697 12.3022C60.2347 12.6053 59.9533 12.8651 59.6255 13.0815C59.3039 13.298 58.9482 13.4774 58.5586 13.6196C58.1751 13.7557 57.77 13.8577 57.3433 13.9258C56.9165 13.9876 56.4836 14.0186 56.0444 14.0186C55.4198 14.0186 54.8013 13.9351 54.189 13.7681C53.5828 13.6011 53.0355 13.3475 52.5469 13.0073C52.0645 12.661 51.6717 12.2311 51.3687 11.7178C51.0718 11.2044 50.9233 10.5983 50.9233 9.89941C50.9233 9.61491 50.9574 9.3304 51.0254 9.0459C51.0934 8.75521 51.1924 8.47998 51.3223 8.22021C51.4521 7.96045 51.616 7.72542 51.814 7.51514C52.0119 7.30485 52.2407 7.12858 52.5005 6.98633C52.0923 6.62142 51.7861 6.20394 51.582 5.73389C51.3779 5.25765 51.2759 4.7474 51.2759 4.20312C51.2759 3.56608 51.415 3.00944 51.6934 2.5332C51.9779 2.05078 52.3459 1.64876 52.7974 1.32715C53.255 0.999349 53.7684 0.755046 54.3374 0.594238C54.9064 0.427246 55.4754 0.34375 56.0444 0.34375C56.4217 0.34375 56.799 0.380859 57.1763 0.455078C57.5597 0.529297 57.9277 0.637533 58.2803 0.779785C58.6328 0.922038 58.9606 1.1014 59.2637 1.31787C59.5729 1.53434 59.8389 1.78792 60.0615 2.07861C60.2904 2.36312 60.4697 2.68473 60.5996 3.04346C60.7295 3.396 60.7944 3.78255 60.7944 4.20312C60.7944 4.7474 60.6924 5.25765 60.4883 5.73389C60.2842 6.20394 59.978 6.62142 59.5698 6.98633C60.1636 7.29557 60.5903 7.6945 60.8501 8.18311C61.1099 8.67171 61.2397 9.24382 61.2397 9.89941ZM57.5845 5.09375C57.5845 4.88965 57.5381 4.70719 57.4453 4.54639C57.3587 4.37939 57.2412 4.23714 57.0928 4.11963C56.9443 4.00212 56.7773 3.91243 56.5918 3.85059C56.4124 3.78874 56.23 3.75781 56.0444 3.75781C55.8527 3.75781 55.6641 3.78874 55.4785 3.85059C55.293 3.91243 55.126 4.00212 54.9775 4.11963C54.8291 4.23714 54.7085 4.37939 54.6157 4.54639C54.5291 4.70719 54.4858 4.88965 54.4858 5.09375C54.4858 5.29785 54.5291 5.4834 54.6157 5.65039C54.7085 5.8112 54.8291 5.94727 54.9775 6.05859C55.126 6.16992 55.293 6.25651 55.4785 6.31836C55.6641 6.38021 55.8527 6.41113 56.0444 6.41113C56.23 6.41113 56.4124 6.38021 56.5918 6.31836C56.7773 6.25651 56.9443 6.16992 57.0928 6.05859C57.2412 5.94727 57.3587 5.8112 57.4453 5.65039C57.5381 5.4834 57.5845 5.29785 57.5845 5.09375ZM57.5659 9.4541C57.5659 9.25 57.5195 9.06755 57.4268 8.90674C57.3402 8.73975 57.2257 8.60059 57.0835 8.48926C56.9412 8.37793 56.7773 8.29134 56.5918 8.22949C56.4124 8.16764 56.23 8.13672 56.0444 8.13672C55.8589 8.13672 55.6733 8.16764 55.4878 8.22949C55.3084 8.29134 55.1445 8.37793 54.9961 8.48926C54.8477 8.60059 54.7271 8.73975 54.6343 8.90674C54.5477 9.06755 54.5044 9.25 54.5044 9.4541C54.5044 9.65202 54.5477 9.83138 54.6343 9.99219C54.7271 10.153 54.8477 10.2891 54.9961 10.4004C55.1445 10.5117 55.3084 10.5983 55.4878 10.6602C55.6733 10.722 55.8589 10.7529 56.0444 10.7529C56.23 10.7529 56.4124 10.722 56.5918 10.6602C56.7773 10.5983 56.9412 10.5117 57.0835 10.4004C57.2257 10.2891 57.3402 10.153 57.4268 9.99219C57.5195 9.83138 57.5659 9.65202 57.5659 9.4541Z" fill="black"/>
</svg>
