<svg width="32" height="23" viewBox="0 0 32 23" fill="none" xmlns="http://www.w3.org/2000/svg">
<path fill-rule="evenodd" clip-rule="evenodd" d="M9.73103 0.00166002L10.4193 0.00254344C10.537 0.00270962 10.656 0.00288464 10.776 0.00306757L11.5076 0.00425248C13.1127 0.00699268 14.8223 0.0107507 16.1253 0.0134591L16.696 0.014627C16.7857 0.0148068 16.8725 0.0149784 16.9562 0.015141C20.2489 -0.216083 23.2212 2.22787 23.4861 5.50745C23.4885 5.54109 23.4907 5.73198 23.4925 6.07921L26.5303 3.59136C27.4143 2.86696 28.604 2.725 29.6358 3.21233C30.6675 3.70259 31.3085 4.71529 31.307 5.85678L31.2895 16.6116C31.288 17.7531 30.6455 18.7658 29.6153 19.2517C29.2114 19.4434 28.784 19.5356 28.3596 19.5356C27.6996 19.5356 27.0484 19.3088 26.5113 18.8683L23.4993 16.369C23.4993 16.4114 23.4993 16.4539 23.4992 16.4965C23.5607 18.0419 23.0105 19.5302 21.948 20.6863C20.8314 21.9024 19.2918 22.6093 17.6147 22.6781C17.5863 22.6801 17.426 22.6815 17.1629 22.6823L16.5848 22.6833C16.3593 22.6835 16.103 22.6835 15.8224 22.6834L14.5844 22.6822C14.4728 22.6821 14.3595 22.6819 14.2447 22.6817L13.5387 22.6806C11.8566 22.6778 9.96192 22.6734 8.49298 22.6702L7.89136 22.6689C7.70075 22.6685 7.52069 22.6681 7.35305 22.6678C7.19792 22.6795 7.0428 22.6854 6.88767 22.6854C3.79395 22.6868 1.09535 20.3161 0.840713 17.2062L0.840485 17.2031L0.839118 17.1741C0.839016 17.1709 0.838911 17.1674 0.838805 17.1636L0.8378 17.1175C0.837683 17.111 0.837565 17.1039 0.837446 17.0963L0.836339 17.011C0.836212 16.9996 0.836085 16.9874 0.835957 16.9745L0.834786 16.8361C0.834655 16.8182 0.834522 16.7993 0.83439 16.7795L0.833594 16.6488C0.833461 16.625 0.833328 16.6001 0.833195 16.5741L0.832007 16.3092C0.831876 16.2762 0.831746 16.2419 0.831617 16.2064L0.830473 15.85C0.830348 15.8062 0.830225 15.761 0.830103 15.7143L0.829042 15.2524C0.828929 15.1963 0.828817 15.1386 0.828707 15.0792L0.82748 14.2824C0.827386 14.2088 0.827295 14.1333 0.827206 14.0558L0.82607 12.7436C0.826009 12.6457 0.825951 12.5456 0.825896 12.4433L0.825875 6.7096C0.825938 6.5357 0.826006 6.35891 0.826079 6.17918C0.755833 4.67036 1.30316 3.17179 2.37148 2.00543C3.48662 0.78784 5.0247 0.0780692 6.70328 0.00636033C6.72588 0.00473428 6.83284 0.0035057 7.00926 0.00261439L7.32413 0.00152283C7.38467 0.00138055 7.44909 0.00125746 7.51715 0.00115264L9.40221 0.00131204C9.50988 0.00141668 9.61956 0.00153299 9.73103 0.00166002ZM17.0352 2.20738C15.1875 2.2047 12.9283 2.20147 11.0003 2.19936L9.98604 2.19834C9.82396 2.19819 9.66572 2.19805 9.5119 2.19793L6.96686 2.19801C6.87109 2.19844 6.80913 2.19909 6.78523 2.20007C5.70521 2.24543 4.7086 2.70349 3.99005 3.4879C3.31979 4.22108 2.97442 5.15769 3.01978 6.12942L3.02099 11.7827C3.02106 11.9075 3.02113 12.0314 3.0212 12.1543L3.02254 13.9017C3.02264 14.0105 3.02276 14.1174 3.02287 14.2223L3.02363 14.8268C3.02376 14.9232 3.0239 15.0173 3.02405 15.1089L3.02547 15.8625C3.02703 16.5409 3.029 16.981 3.03149 17.0658C3.19832 19.0926 5.09788 20.6424 7.27256 20.4756C7.50253 20.4759 7.73882 20.4763 7.98003 20.4766L8.71693 20.4778C9.3409 20.4788 9.98665 20.4799 10.6319 20.481L11.4047 20.4823C11.7895 20.4829 12.171 20.4836 12.5443 20.4841L13.2786 20.4853C13.3987 20.4854 13.5176 20.4856 13.635 20.4858L14.3207 20.4867C14.4316 20.4868 14.5407 20.4869 14.6479 20.487L17.2315 20.487C17.4005 20.4864 17.5067 20.4855 17.5386 20.4844C18.6143 20.4405 19.6123 19.9839 20.3309 19.2009C21.0026 18.4707 21.348 17.5341 21.3055 16.5667L21.3043 16.5426L21.304 9.46506C21.3039 9.35011 21.3039 9.23665 21.3038 9.12483L21.3027 7.87236C21.3026 7.77629 21.3025 7.68252 21.3023 7.59119L21.3011 6.83988C21.3006 6.61442 21.3001 6.4154 21.2995 6.24716L21.2983 5.95304C21.2974 5.78604 21.2964 5.67895 21.2953 5.64209C21.1299 3.60497 19.2216 2.03616 17.0352 2.20738ZM27.9206 5.29042L23.4987 8.89825C23.4989 9.07806 23.499 9.26497 23.4992 9.45897L23.5001 13.1288L27.903 17.1721C28.2265 17.4356 28.5514 17.3273 28.6772 17.2658C28.8031 17.2073 29.0943 17.0243 29.0943 16.6087L29.1119 5.85385C29.1133 5.43823 28.8206 5.2553 28.6948 5.1953C28.5704 5.13676 28.2411 5.027 27.9206 5.29042Z" fill="white"/>
</svg>
